<svg xmlns="http://www.w3.org/2000/svg" width="30" height="32" viewBox="0 0 30 32" fill="none">
  <g clip-path="url(#clip0_0_4)">
    <path d="M18 12.8889C18 7.18831 22.359 2.41934 28.0835 1.53535C28.82 1.42163 29.5 2.03559 29.5 2.8889C29.5 3.69651 28.822 4.4148 27.9026 4.63102C24.7519 5.37209 22.2485 7.74669 21.4412 10.7825C21.2511 11.4973 21.4698 12.1648 21.9073 12.6392C22.3383 13.1065 22.9798 13.3889 23.6667 13.3889L28 13.3889C28.8284 13.3889 29.5 14.0605 29.5 14.8889L29.5 22.8889C29.5 23.7173 28.8284 24.3889 28 24.3889H19.5C18.6716 24.3889 18 23.7173 18 22.8889L18 12.8889Z" fill="white" stroke="#E2E0E1"/>
    <path d="M3 12.8889C3 7.18831 7.35902 2.41934 13.0835 1.53535C13.82 1.42163 14.5 2.03559 14.5 2.8889C14.5 3.69651 13.822 4.4148 12.9026 4.63102C9.75185 5.37209 7.24846 7.74669 6.44122 10.7825C6.25115 11.4973 6.46985 12.1648 6.90735 12.6392C7.33832 13.1065 7.97978 13.3889 8.66669 13.3889L13 13.3889C13.8284 13.3889 14.5 14.0605 14.5 14.8889L14.5 22.8889C14.5 23.7173 13.8284 24.3889 13 24.3889H4.5C3.67157 24.3889 3 23.7173 3 22.8889L3 12.8889Z" fill="white" stroke="#E2E0E1"/>
  </g>
  <defs>
    <clipPath id="clip0_0_4">
      <rect width="30" height="32" fill="white" transform="matrix(1 0 0 -1 0 32)"/>
    </clipPath>
  </defs>
</svg>